<?xml version="1.0" encoding="UTF-8"?>
<svg version="1.1" xmlns="http://www.w3.org/2000/svg" width="96" height="96">
<path d="M0 0 C4.83936541 2.83909438 9.45750609 6.61021529 11.08984375 12.15234375 C11.20457031 12.74144531 11.31929688 13.33054687 11.4375 13.9375 C12.571875 13.81375 13.70625 13.69 14.875 13.5625 C19.72156387 13.55382994 22.78118109 15.54223747 26.75 18.13671875 C28.4375 19.9375 28.4375 19.9375 28.6875 22.64453125 C28.605 23.40121094 28.5225 24.15789063 28.4375 24.9375 C25.12018964 24.54722819 23.4305083 23.93241513 20.6875 21.9375 C17.34047019 19.87778935 16.61565165 19.80015721 12.9375 19.8125 C10.60546875 19.66796875 10.60546875 19.66796875 8.4375 18.9375 C6.53964359 16.55100011 5.23678282 14.09929993 3.84375 11.390625 C1.36761146 7.07113888 -1.88625042 5.49624986 -6.5625 3.9375 C-13.90444058 3.27400611 -20.57794716 3.21650704 -26.5625 7.9375 C-29.8245295 11.30798572 -31.41078449 14.02720691 -32.1875 18.6875 C-32.64125 19.76 -33.095 20.8325 -33.5625 21.9375 C-36.28884569 22.95932187 -39.01003516 23.52977153 -41.8515625 24.15625 C-44.52979918 24.92807613 -45.84219351 25.51499902 -47.75 27.5 C-50.18732618 32.12251517 -50.58468875 35.81824576 -49.5625 40.9375 C-47.82257873 44.67794749 -45.48459454 46.59050127 -41.59375 48.0546875 C-36.52471016 49.37907325 -31.33544596 49.3997795 -26.125 49.5625 C-25.10728516 49.60117187 -24.08957031 49.63984375 -23.04101562 49.6796875 C-20.54835064 49.77330872 -18.0556805 49.85903993 -15.5625 49.9375 C-15.5625 51.2575 -15.5625 52.5775 -15.5625 53.9375 C-20.08311442 54.05418418 -24.60333847 54.12491645 -29.125 54.1875 C-31.04022461 54.23777344 -31.04022461 54.23777344 -32.99414062 54.2890625 C-40.06594314 54.36253577 -44.89627647 54.362474 -50.5625 49.9375 C-55.56733423 44.53754727 -55.91268872 40.08828252 -55.84375 32.953125 C-55.33618874 27.51094039 -53.11559188 24.53373332 -49.3125 20.625 C-46.66779187 19.00211092 -45.44784038 18.69846551 -42.5 18.25 C-40.3903371 17.89239673 -40.3903371 17.89239673 -38.5625 16.9375 C-37.31747441 14.82812211 -36.58281185 12.69591758 -35.75 10.39453125 C-33.24857906 5.21889385 -28.28598242 1.33112144 -23.2265625 -1.2578125 C-15.91107805 -3.46747496 -6.94906689 -3.21051115 0 0 Z " fill="#FAAF04" transform="translate(55.5625,6.0625)"/>
<path d="M0 0 C0.9178125 0.33386719 1.835625 0.66773438 2.78125 1.01171875 C5.02527086 1.82985136 7.2643252 2.65938628 9.5 3.5 C9.64648734 7.81213657 9.73447124 12.12362443 9.8125 16.4375 C9.85439453 17.64986328 9.89628906 18.86222656 9.93945312 20.11132812 C10.06693388 29.51940781 8.28825321 35.2260733 2.0625 42.25 C-9.03744856 51.9962963 -9.03744856 51.9962963 -14.25 53.0625 C-23.20388876 51.51278848 -30.35460582 43.53203872 -35.5 36.5 C-38.03623047 32.13082116 -38.86495862 29.0471036 -38.79296875 24.0078125 C-38.78330078 22.80898438 -38.77363281 21.61015625 -38.76367188 20.375 C-38.73853516 19.1375 -38.71339844 17.9 -38.6875 16.625 C-38.67396484 15.36429688 -38.66042969 14.10359375 -38.64648438 12.8046875 C-38.61123435 9.70268546 -38.56195504 6.60156466 -38.5 3.5 C-35.34087836 2.31217026 -32.17170892 1.15375367 -29 0 C-28.113125 -0.33386719 -27.22625 -0.66773438 -26.3125 -1.01171875 C-16.20378112 -4.6538307 -9.96846707 -3.7526642 0 0 Z M-20.828125 2.8125 C-21.62734375 3.08320312 -22.4265625 3.35390625 -23.25 3.6328125 C-24.075 3.91898438 -24.9 4.20515625 -25.75 4.5 C-26.59046875 4.78617188 -27.4309375 5.07234375 -28.296875 5.3671875 C-30.36649472 6.07273968 -32.43403458 6.78383252 -34.5 7.5 C-35.20423145 23.56537779 -35.20423145 23.56537779 -28.34765625 37.57421875 C-21.92453682 44.3642766 -21.92453682 44.3642766 -13.5 47.5 C-6.29437518 43.88529712 0.12324376 38.14033361 3.8125 30.9375 C5.34471685 25.50509481 5.63324524 20.24108377 5.5625 14.625 C5.55798828 13.93664063 5.55347656 13.24828125 5.54882812 12.5390625 C5.53716336 10.85933665 5.51923271 9.17965625 5.5 7.5 C2.58666921 6.49009308 -0.33115319 5.49384048 -3.25 4.5 C-4.075 4.21382812 -4.9 3.92765625 -5.75 3.6328125 C-6.54921875 3.36210938 -7.3484375 3.09140625 -8.171875 2.8125 C-8.9050293 2.56113281 -9.63818359 2.30976562 -10.39355469 2.05078125 C-14.20995238 1.05289145 -17.20633677 1.57074403 -20.828125 2.8125 Z " fill="#FAB004" transform="translate(86.5,39.5)"/>
<path d="M0 0 C-0.28938349 5.47761602 -3.56143363 8.22678993 -7.25 11.875 C-7.82363281 12.48085937 -8.39726563 13.08671875 -8.98828125 13.7109375 C-13.2236222 17.95592615 -13.2236222 17.95592615 -16.68359375 18.15234375 C-19.53281645 16.73493954 -20.90388734 15.22815868 -22.8125 12.6875 C-23.71935547 11.51767578 -23.71935547 11.51767578 -24.64453125 10.32421875 C-26 8 -26 8 -26 4 C-23.29068581 4.15481795 -21.53415961 4.48172081 -19.5546875 6.40234375 C-18.32320358 7.89771708 -17.1570163 9.4462924 -16 11 C-12.60988329 8.15699146 -9.33864416 5.3622705 -6.3125 2.125 C-4 0 -4 0 0 0 Z " fill="#F9AF04" transform="translate(86,54)"/>
</svg>
