<?xml version="1.0" encoding="UTF-8"?>
<svg version="1.1" xmlns="http://www.w3.org/2000/svg" width="66" height="66">
<path d="M0 0 C17.82 0 35.64 0 54 0 C54 4.62 54 9.24 54 14 C45.42 14 36.84 14 28 14 C28 14.66 28 15.32 28 16 C28.99 16 29.98 16 31 16 C31 16.99 31 17.98 31 19 C34.96 19 38.92 19 43 19 C43 19.99 43 20.98 43 22 C39.04 22 35.08 22 31 22 C31 22.99 31 23.98 31 25 C28.36 25 25.72 25 23 25 C22.67 24.01 22.34 23.02 22 22 C18.37 22 14.74 22 11 22 C10.67 21.01 10.34 20.02 10 19 C13.96 19 17.92 19 22 19 C22.33 18.01 22.66 17.02 23 16 C23.99 16 24.98 16 26 16 C26 15.34 26 14.68 26 14 C17.42 14 8.84 14 0 14 C0 9.38 0 4.76 0 0 Z M2 2 C2 5.3 2 8.6 2 12 C18.17 12 34.34 12 51 12 C51 8.7 51 5.4 51 2 C34.83 2 18.66 2 2 2 Z M25 19 C25 19.99 25 20.98 25 22 C26.32 22 27.64 22 29 22 C29 21.01 29 20.02 29 19 C27.68 19 26.36 19 25 19 Z " fill="#F9AF04" transform="translate(0,41)"/>
<path d="M0 0 C0.64066406 0.34933594 1.28132813 0.69867188 1.94140625 1.05859375 C7.04932398 3.74576954 11.22309915 5.6232456 17 6 C17.54026277 16.41506566 17.06743109 24.91013975 10.625 33.4375 C7.27438304 36.70834036 4.3839149 39 -0.4375 39 C-7.15679412 36.37783644 -10.69166929 32.60639684 -14.0546875 26.28125 C-15.99889402 21.58944583 -16.11342596 17.22917028 -16.0625 12.1875 C-16.05347656 11.02605469 -16.04445312 9.86460938 -16.03515625 8.66796875 C-16.02355469 7.78753906 -16.01195312 6.90710938 -16 6 C-15.02160156 5.85304688 -15.02160156 5.85304688 -14.0234375 5.703125 C-8.36568892 4.73513262 -4.51577961 3.56508917 0 0 Z M-3.1875 5.375 C-6.74787048 7.43210295 -9.99101177 8.11666361 -14 9 C-13.83056881 17.9644504 -12.77097136 26.07653184 -6.2890625 32.765625 C-3.70940637 34.81583205 -1.70032505 35.98332559 1.625 36.0625 C7.57299281 33.40155585 10.25663532 29.63653396 12.99609375 23.8828125 C14.68969802 19.01946639 14.90329718 14.11645827 15 9 C14.31292969 8.80664062 13.62585938 8.61328125 12.91796875 8.4140625 C12.01691406 8.15367188 11.11585937 7.89328125 10.1875 7.625 C8.84751953 7.24214844 8.84751953 7.24214844 7.48046875 6.8515625 C5 6 5 6 2 4 C-1.00730728 3.73391423 -1.00730728 3.73391423 -3.1875 5.375 Z " fill="#FAB004" transform="translate(49,0)"/>
<path d="M0 0 C10.89 0 21.78 0 33 0 C33 0.99 33 1.98 33 3 C22.77 3 12.54 3 2 3 C2 5.97 2 8.94 2 12 C15.2 12 28.4 12 42 12 C42 12.99 42 13.98 42 15 C28.14 15 14.28 15 0 15 C0 10.05 0 5.1 0 0 Z " fill="#F9AF04" transform="translate(0,24)"/>
<path d="M0 0 C0.79019531 0.26941406 1.58039062 0.53882813 2.39453125 0.81640625 C2.98621094 1.02136719 3.57789062 1.22632813 4.1875 1.4375 C4.6878734 9.19328769 3.66511411 15.87751609 -1.16796875 22.21484375 C-3.84879987 24.80942829 -5.66912553 25.42995398 -9.375 25.625 C-14.35983208 23.9029671 -16.44100362 21.05931637 -18.78515625 16.578125 C-20.95980267 11.52080775 -21.15293779 6.8845046 -20.8125 1.4375 C-19.08959395 0.73445778 -17.35882534 0.05066509 -15.625 -0.625 C-14.66207031 -1.00785156 -13.69914062 -1.39070312 -12.70703125 -1.78515625 C-8.0519301 -3.03531162 -4.44002333 -1.52418711 0 0 Z M-14.5 1.9375 C-15.30824219 2.2159375 -16.11648437 2.494375 -16.94921875 2.78125 C-17.56410156 2.9978125 -18.17898437 3.214375 -18.8125 3.4375 C-17.59459423 12.63623107 -17.59459423 12.63623107 -12.8125 20.4375 C-10.21225951 22.30060322 -10.21225951 22.30060322 -7.8125 23.4375 C-2.44261596 19.49958504 0.36553413 16.03083868 1.5859375 9.2109375 C1.83677521 7.29236795 2.0184214 5.36499607 2.1875 3.4375 C0.75195975 2.93190092 -0.6860202 2.4332251 -2.125 1.9375 C-2.92550781 1.6590625 -3.72601563 1.380625 -4.55078125 1.09375 C-8.33657775 -0.00471945 -10.88241183 0.67920846 -14.5 1.9375 Z " fill="#F9B004" transform="translate(57.8125,8.5625)"/>
<path d="M0 0 C10.23 0 20.46 0 31 0 C31 0.66 31 1.32 31 2 C21.43 2 11.86 2 2 2 C2 5.3 2 8.6 2 12 C11.9 12 21.8 12 32 12 C32 12.66 32 13.32 32 14 C21.44 14 10.88 14 0 14 C0 9.38 0 4.76 0 0 Z " fill="#F9AF04" transform="translate(0,8)"/>
<path d="M0 0 C0.99 0 1.98 0 3 0 C1.4404735 3.82792868 -0.83631836 6.36359864 -4 9 C-6.1875 9.0625 -6.1875 9.0625 -8 8 C-9.25 5.9375 -9.25 5.9375 -10 4 C-8.9171875 4.4021875 -8.9171875 4.4021875 -7.8125 4.8125 C-6.4203125 4.9053125 -6.4203125 4.9053125 -5 5 C-2.35412766 2.60414714 -2.35412766 2.60414714 0 0 Z " fill="#F9B004" transform="translate(53,14)"/>
<path d="M0 0 C1.2065625 0.0309375 1.2065625 0.0309375 2.4375 0.0625 C2.81968767 1.71864657 3.15145102 3.38707024 3.4375 5.0625 C2.4375 6.0625 2.4375 6.0625 -0.125 6.125 C-1.3315625 6.0940625 -1.3315625 6.0940625 -2.5625 6.0625 C-2.94468767 4.40635343 -3.27645102 2.73792976 -3.5625 1.0625 C-2.5625 0.0625 -2.5625 0.0625 0 0 Z M-0.5625 2.0625 C0.4375 4.0625 0.4375 4.0625 0.4375 4.0625 Z " fill="#FAB003" transform="translate(46.5625,44.9375)"/>
<path d="M0 0 C1.67542976 0.28604898 3.34385343 0.61781233 5 1 C5 2.65 5 4.3 5 6 C3.34385343 6.38218767 1.67542976 6.71395102 0 7 C-1 6 -1 6 -1.125 3.5 C-1 1 -1 1 0 0 Z " fill="#FAB203" transform="translate(28,28)"/>
<path d="M0 0 C1.2065625 0.0309375 1.2065625 0.0309375 2.4375 0.0625 C2.4375 2.0425 2.4375 4.0225 2.4375 6.0625 C0.7875 6.0625 -0.8625 6.0625 -2.5625 6.0625 C-2.94468767 4.40635343 -3.27645102 2.73792976 -3.5625 1.0625 C-2.5625 0.0625 -2.5625 0.0625 0 0 Z " fill="#FAB303" transform="translate(38.5625,44.9375)"/>
<path d="M0 0 C1.65 0 3.3 0 5 0 C5.33 1.65 5.66 3.3 6 5 C4.34385343 5.38218767 2.67542976 5.71395102 1 6 C0 5 0 5 -0.0625 2.4375 C-0.041875 1.633125 -0.02125 0.82875 0 0 Z " fill="#FAAE03" transform="translate(27,45)"/>
<path d="M0 0 C0.99 0 1.98 0 3 0 C3 2.31 3 4.62 3 7 C2.01 6.67 1.02 6.34 0 6 C0 4.02 0 2.04 0 0 Z " fill="#FAA903" transform="translate(16,28)"/>
<path d="M0 0 C1.32 0 2.64 0 4 0 C4 2 4 4 4 6 C2.68 5.67 1.36 5.34 0 5 C0 3.35 0 1.7 0 0 Z " fill="#FAAD03" transform="translate(27,12)"/>
<path d="M0 0 C0.99 0.33 1.98 0.66 3 1 C3 2.65 3 4.3 3 6 C2.01 6.33 1.02 6.66 0 7 C0 4.69 0 2.38 0 0 Z " fill="#F9B004" transform="translate(12,28)"/>
<path d="M0 0 C0.99 0.33 1.98 0.66 3 1 C3 2.65 3 4.3 3 6 C2.01 6.33 1.02 6.66 0 7 C0 4.69 0 2.38 0 0 Z " fill="#FBB002" transform="translate(8,28)"/>
<path d="M0 0 C0.99 0 1.98 0 3 0 C3 1.98 3 3.96 3 6 C2.01 6 1.02 6 0 6 C0 4.02 0 2.04 0 0 Z " fill="#F9B004" transform="translate(16,45)"/>
<path d="M0 0 C0.99 0 1.98 0 3 0 C3 1.98 3 3.96 3 6 C2.01 6 1.02 6 0 6 C0 4.02 0 2.04 0 0 Z " fill="#F9AF04" transform="translate(12,45)"/>
<path d="M0 0 C0.99 0 1.98 0 3 0 C3 1.98 3 3.96 3 6 C2.01 6 1.02 6 0 6 C0 4.02 0 2.04 0 0 Z " fill="#FBAD02" transform="translate(8,45)"/>
<path d="M0 0 C0.99 0 1.98 0 3 0 C3 1.98 3 3.96 3 6 C2.01 6 1.02 6 0 6 C0 4.02 0 2.04 0 0 Z " fill="#F9B004" transform="translate(16,12)"/>
<path d="M0 0 C0.99 0 1.98 0 3 0 C3 1.98 3 3.96 3 6 C2.01 6 1.02 6 0 6 C0 4.02 0 2.04 0 0 Z " fill="#F9AF04" transform="translate(12,12)"/>
<path d="M0 0 C0.99 0 1.98 0 3 0 C3 1.98 3 3.96 3 6 C2.01 6 1.02 6 0 6 C0 4.02 0 2.04 0 0 Z " fill="#FBAD02" transform="translate(8,12)"/>
<path d="M0 0 C0.66 0 1.32 0 2 0 C2 2.31 2 4.62 2 7 C1.34 7 0.68 7 0 7 C0 4.69 0 2.38 0 0 Z " fill="#FAB004" transform="translate(4,28)"/>
<path d="M0 0 C0.66 0 1.32 0 2 0 C2 1.98 2 3.96 2 6 C1.34 6 0.68 6 0 6 C0 4.02 0 2.04 0 0 Z " fill="#F9AF04" transform="translate(4,45)"/>
<path d="M0 0 C0.66 0 1.32 0 2 0 C2 1.98 2 3.96 2 6 C1.34 6 0.68 6 0 6 C0 4.02 0 2.04 0 0 Z " fill="#F9AF04" transform="translate(4,12)"/>
</svg>
